<svg xmlns="http://www.w3.org/2000/svg" xmlns:xlink="http://www.w3.org/1999/xlink" style="isolation:isolate" viewBox="0 0 986 986" width="986" height="986"><defs><clipPath id="_clipPath_YmA2vrxR2OvNC75ORHqSb7tOsrlMGO9w"><rect width="986" height="986"/></clipPath></defs><g clip-path="url(#_clipPath_YmA2vrxR2OvNC75ORHqSb7tOsrlMGO9w)"><g id="layer101"/><g id="layer102"><path d=" M 0 493 L 0 0 L 493 0 L 986 0 L 986 493 L 986 986 L 493 986 L 0 986 L 0 493 Z  M 238 867 L 238 748 L 119 748 L 0 748 L 0 731 L 0 714 L 17 714 L 34 714 L 34 646 L 34 578 L 51 578 L 68 578 L 68 646 L 68 714 L 85 714 L 102 714 L 102 697 L 102 680 L 119 680 L 136 680 L 136 697 L 136 714 L 153 714 L 170 714 L 170 697 L 170 680 L 187 680 L 204 680 L 204 663 L 204 646 L 255 646 L 306 646 L 306 612 L 306 578 L 272 578 L 238 578 L 238 595 L 238 612 L 204 612 L 170 612 L 170 629 L 170 646 L 153 646 L 136 646 L 136 629 L 136 612 L 119 612 L 102 612 L 102 544 L 102 476 L 85 476 L 68 476 L 68 459 L 68 442 L 51 442 L 34 442 L 34 476 L 34 510 L 51 510 L 68 510 L 68 527 L 68 544 L 34 544 L 0 544 L 0 493 L 0 442 L 17 442 L 34 442 L 34 408 L 34 374 L 17 374 L 0 374 L 0 340 L 0 306 L 17 306 L 34 306 L 34 323 L 34 340 L 51 340 L 68 340 L 68 323 L 68 306 L 85 306 L 102 306 L 102 340 L 102 374 L 119 374 L 136 374 L 136 357 L 136 340 L 153 340 L 170 340 L 170 306 L 170 272 L 85 272 L 0 272 L 0 255 L 0 238 L 119 238 L 238 238 L 238 119 L 238 0 L 289 0 L 340 0 L 340 34 L 340 68 L 357 68 L 374 68 L 374 34 L 374 0 L 391 0 L 408 0 L 408 17 L 408 34 L 425 34 L 442 34 L 442 17 L 442 0 L 493 0 L 544 0 L 544 17 L 544 34 L 561 34 L 578 34 L 578 17 L 578 0 L 595 0 L 612 0 L 612 17 L 612 34 L 595 34 L 578 34 L 578 51 L 578 68 L 595 68 L 612 68 L 612 85 L 612 102 L 595 102 L 578 102 L 578 119 L 578 136 L 612 136 L 646 136 L 646 119 L 646 102 L 663 102 L 680 102 L 680 85 L 680 68 L 663 68 L 646 68 L 646 51 L 646 34 L 663 34 L 680 34 L 680 51 L 680 68 L 697 68 L 714 68 L 714 34 L 714 0 L 731 0 L 748 0 L 748 119 L 748 238 L 867 238 L 986 238 L 986 272 L 986 306 L 969 306 L 952 306 L 952 323 L 952 340 L 969 340 L 986 340 L 986 391 L 986 442 L 969 442 L 952 442 L 952 459 L 952 476 L 969 476 L 986 476 L 986 510 L 986 544 L 969 544 L 952 544 L 952 510 L 952 476 L 935 476 L 918 476 L 918 510 L 918 544 L 901 544 L 884 544 L 884 561 L 884 578 L 918 578 L 952 578 L 952 595 L 952 612 L 969 612 L 986 612 L 986 663 L 986 714 L 969 714 L 952 714 L 952 731 L 952 748 L 969 748 L 986 748 L 986 765 L 986 782 L 969 782 L 952 782 L 952 765 L 952 748 L 918 748 L 884 748 L 884 765 L 884 782 L 901 782 L 918 782 L 918 799 L 918 816 L 884 816 L 850 816 L 850 765 L 850 714 L 901 714 L 952 714 L 952 680 L 952 646 L 935 646 L 918 646 L 918 663 L 918 680 L 884 680 L 850 680 L 850 663 L 850 646 L 833 646 L 816 646 L 816 663 L 816 680 L 799 680 L 782 680 L 782 663 L 782 646 L 731 646 L 680 646 L 680 680 L 680 714 L 663 714 L 646 714 L 646 731 L 646 748 L 612 748 L 578 748 L 578 731 L 578 714 L 561 714 L 544 714 L 544 731 L 544 748 L 510 748 L 476 748 L 476 765 L 476 782 L 510 782 L 544 782 L 544 799 L 544 816 L 527 816 L 510 816 L 510 833 L 510 850 L 578 850 L 646 850 L 646 816 L 646 782 L 663 782 L 680 782 L 680 816 L 680 850 L 748 850 L 816 850 L 816 867 L 816 884 L 799 884 L 782 884 L 782 901 L 782 918 L 816 918 L 850 918 L 850 901 L 850 884 L 867 884 L 884 884 L 884 867 L 884 850 L 901 850 L 918 850 L 918 867 L 918 884 L 901 884 L 884 884 L 884 901 L 884 918 L 901 918 L 918 918 L 918 935 L 918 952 L 935 952 L 952 952 L 952 918 L 952 884 L 969 884 L 986 884 L 986 935 L 986 986 L 952 986 L 918 986 L 918 969 L 918 952 L 867 952 L 816 952 L 816 969 L 816 986 L 799 986 L 782 986 L 782 969 L 782 952 L 765 952 L 748 952 L 748 918 L 748 884 L 731 884 L 714 884 L 714 901 L 714 918 L 680 918 L 646 918 L 646 901 L 646 884 L 629 884 L 612 884 L 612 918 L 612 952 L 663 952 L 714 952 L 714 969 L 714 986 L 663 986 L 612 986 L 612 969 L 612 952 L 595 952 L 578 952 L 578 969 L 578 986 L 561 986 L 544 986 L 544 969 L 544 952 L 561 952 L 578 952 L 578 935 L 578 918 L 561 918 L 544 918 L 544 901 L 544 884 L 510 884 L 476 884 L 476 867 L 476 850 L 442 850 L 408 850 L 408 867 L 408 884 L 425 884 L 442 884 L 442 901 L 442 918 L 425 918 L 408 918 L 408 952 L 408 986 L 374 986 L 340 986 L 340 969 L 340 952 L 323 952 L 306 952 L 306 935 L 306 918 L 340 918 L 374 918 L 374 884 L 374 850 L 391 850 L 408 850 L 408 816 L 408 782 L 425 782 L 442 782 L 442 765 L 442 748 L 391 748 L 340 748 L 340 799 L 340 850 L 323 850 L 306 850 L 306 833 L 306 816 L 289 816 L 272 816 L 272 901 L 272 986 L 255 986 L 238 986 L 238 867 Z  M 306 765 L 306 748 L 323 748 L 340 748 L 340 731 L 340 714 L 323 714 L 306 714 L 306 697 L 306 680 L 255 680 L 204 680 L 204 697 L 204 714 L 238 714 L 272 714 L 272 748 L 272 782 L 289 782 L 306 782 L 306 765 Z  M 442 680 L 442 646 L 476 646 L 510 646 L 510 663 L 510 680 L 493 680 L 476 680 L 476 697 L 476 714 L 510 714 L 544 714 L 544 697 L 544 680 L 561 680 L 578 680 L 578 697 L 578 714 L 612 714 L 646 714 L 646 697 L 646 680 L 612 680 L 578 680 L 578 629 L 578 578 L 595 578 L 612 578 L 612 612 L 612 646 L 629 646 L 646 646 L 646 629 L 646 612 L 663 612 L 680 612 L 680 595 L 680 578 L 697 578 L 714 578 L 714 595 L 714 612 L 731 612 L 748 612 L 748 595 L 748 578 L 731 578 L 714 578 L 714 561 L 714 544 L 748 544 L 782 544 L 782 561 L 782 578 L 799 578 L 816 578 L 816 595 L 816 612 L 799 612 L 782 612 L 782 629 L 782 646 L 799 646 L 816 646 L 816 629 L 816 612 L 833 612 L 850 612 L 850 629 L 850 646 L 867 646 L 884 646 L 884 629 L 884 612 L 867 612 L 850 612 L 850 595 L 850 578 L 833 578 L 816 578 L 816 561 L 816 544 L 850 544 L 884 544 L 884 527 L 884 510 L 799 510 L 714 510 L 714 527 L 714 544 L 697 544 L 680 544 L 680 527 L 680 510 L 663 510 L 646 510 L 646 527 L 646 544 L 663 544 L 680 544 L 680 561 L 680 578 L 646 578 L 612 578 L 612 561 L 612 544 L 595 544 L 578 544 L 578 527 L 578 510 L 595 510 L 612 510 L 612 493 L 612 476 L 595 476 L 578 476 L 578 459 L 578 442 L 612 442 L 646 442 L 646 459 L 646 476 L 697 476 L 748 476 L 748 459 L 748 442 L 697 442 L 646 442 L 646 425 L 646 408 L 714 408 L 782 408 L 782 391 L 782 374 L 765 374 L 748 374 L 748 357 L 748 340 L 765 340 L 782 340 L 782 323 L 782 306 L 799 306 L 816 306 L 816 323 L 816 340 L 833 340 L 850 340 L 850 357 L 850 374 L 833 374 L 816 374 L 816 408 L 816 442 L 799 442 L 782 442 L 782 459 L 782 476 L 816 476 L 850 476 L 850 459 L 850 442 L 867 442 L 884 442 L 884 459 L 884 476 L 901 476 L 918 476 L 918 459 L 918 442 L 935 442 L 952 442 L 952 425 L 952 408 L 901 408 L 850 408 L 850 391 L 850 374 L 901 374 L 952 374 L 952 357 L 952 340 L 918 340 L 884 340 L 884 306 L 884 272 L 867 272 L 850 272 L 850 289 L 850 306 L 833 306 L 816 306 L 816 289 L 816 272 L 799 272 L 782 272 L 782 289 L 782 306 L 765 306 L 748 306 L 748 289 L 748 272 L 731 272 L 714 272 L 714 204 L 714 136 L 680 136 L 646 136 L 646 153 L 646 170 L 629 170 L 612 170 L 612 204 L 612 238 L 629 238 L 646 238 L 646 204 L 646 170 L 663 170 L 680 170 L 680 238 L 680 306 L 646 306 L 612 306 L 612 340 L 612 374 L 629 374 L 646 374 L 646 391 L 646 408 L 612 408 L 578 408 L 578 425 L 578 442 L 561 442 L 544 442 L 544 425 L 544 408 L 527 408 L 510 408 L 510 425 L 510 442 L 493 442 L 476 442 L 476 425 L 476 408 L 459 408 L 442 408 L 442 391 L 442 374 L 459 374 L 476 374 L 476 357 L 476 340 L 459 340 L 442 340 L 442 323 L 442 306 L 425 306 L 408 306 L 408 272 L 408 238 L 425 238 L 442 238 L 442 221 L 442 204 L 459 204 L 476 204 L 476 255 L 476 306 L 493 306 L 510 306 L 510 340 L 510 374 L 527 374 L 544 374 L 544 357 L 544 340 L 561 340 L 578 340 L 578 323 L 578 306 L 561 306 L 544 306 L 544 289 L 544 272 L 561 272 L 578 272 L 578 238 L 578 204 L 561 204 L 544 204 L 544 187 L 544 170 L 561 170 L 578 170 L 578 153 L 578 136 L 561 136 L 544 136 L 544 119 L 544 102 L 561 102 L 578 102 L 578 85 L 578 68 L 561 68 L 544 68 L 544 51 L 544 34 L 527 34 L 510 34 L 510 85 L 510 136 L 493 136 L 476 136 L 476 119 L 476 102 L 459 102 L 442 102 L 442 85 L 442 68 L 459 68 L 476 68 L 476 51 L 476 34 L 459 34 L 442 34 L 442 51 L 442 68 L 425 68 L 408 68 L 408 102 L 408 136 L 442 136 L 476 136 L 476 153 L 476 170 L 425 170 L 374 170 L 374 187 L 374 204 L 357 204 L 340 204 L 340 170 L 340 136 L 357 136 L 374 136 L 374 119 L 374 102 L 323 102 L 272 102 L 272 119 L 272 136 L 289 136 L 306 136 L 306 153 L 306 170 L 289 170 L 272 170 L 272 204 L 272 238 L 289 238 L 306 238 L 306 255 L 306 272 L 255 272 L 204 272 L 204 289 L 204 306 L 221 306 L 238 306 L 238 323 L 238 340 L 204 340 L 170 340 L 170 357 L 170 374 L 153 374 L 136 374 L 136 391 L 136 408 L 102 408 L 68 408 L 68 425 L 68 442 L 119 442 L 170 442 L 170 459 L 170 476 L 153 476 L 136 476 L 136 493 L 136 510 L 153 510 L 170 510 L 170 527 L 170 544 L 187 544 L 204 544 L 204 561 L 204 578 L 221 578 L 238 578 L 238 561 L 238 544 L 221 544 L 204 544 L 204 527 L 204 510 L 238 510 L 272 510 L 272 493 L 272 476 L 289 476 L 306 476 L 306 493 L 306 510 L 340 510 L 374 510 L 374 527 L 374 544 L 340 544 L 306 544 L 306 561 L 306 578 L 357 578 L 408 578 L 408 595 L 408 612 L 425 612 L 442 612 L 442 629 L 442 646 L 425 646 L 408 646 L 408 680 L 408 714 L 425 714 L 442 714 L 442 680 Z  M 374 646 L 374 612 L 357 612 L 340 612 L 340 646 L 340 680 L 357 680 L 374 680 L 374 646 Z  M 170 595 L 170 578 L 153 578 L 136 578 L 136 595 L 136 612 L 153 612 L 170 612 L 170 595 Z  M 952 289 L 952 272 L 935 272 L 918 272 L 918 289 L 918 306 L 935 306 L 952 306 L 952 289 Z  M 306 51 L 306 34 L 289 34 L 272 34 L 272 51 L 272 68 L 289 68 L 306 68 L 306 51 Z  M 442 595 L 442 578 L 425 578 L 408 578 L 408 544 L 408 510 L 425 510 L 442 510 L 442 493 L 442 476 L 391 476 L 340 476 L 340 459 L 340 442 L 357 442 L 374 442 L 374 425 L 374 408 L 340 408 L 306 408 L 306 425 L 306 442 L 272 442 L 238 442 L 238 459 L 238 476 L 221 476 L 204 476 L 204 493 L 204 510 L 187 510 L 170 510 L 170 493 L 170 476 L 187 476 L 204 476 L 204 459 L 204 442 L 221 442 L 238 442 L 238 425 L 238 408 L 221 408 L 204 408 L 204 391 L 204 374 L 221 374 L 238 374 L 238 391 L 238 408 L 272 408 L 306 408 L 306 391 L 306 374 L 289 374 L 272 374 L 272 357 L 272 340 L 289 340 L 306 340 L 306 323 L 306 306 L 323 306 L 340 306 L 340 289 L 340 272 L 357 272 L 374 272 L 374 289 L 374 306 L 391 306 L 408 306 L 408 323 L 408 340 L 425 340 L 442 340 L 442 357 L 442 374 L 425 374 L 408 374 L 408 408 L 408 442 L 442 442 L 476 442 L 476 459 L 476 476 L 493 476 L 510 476 L 510 459 L 510 442 L 527 442 L 544 442 L 544 459 L 544 476 L 561 476 L 578 476 L 578 493 L 578 510 L 561 510 L 544 510 L 544 493 L 544 476 L 527 476 L 510 476 L 510 493 L 510 510 L 493 510 L 476 510 L 476 527 L 476 544 L 493 544 L 510 544 L 510 561 L 510 578 L 527 578 L 544 578 L 544 561 L 544 544 L 561 544 L 578 544 L 578 561 L 578 578 L 561 578 L 544 578 L 544 595 L 544 612 L 527 612 L 510 612 L 510 595 L 510 578 L 493 578 L 476 578 L 476 595 L 476 612 L 459 612 L 442 612 L 442 595 Z  M 476 561 L 476 544 L 459 544 L 442 544 L 442 561 L 442 578 L 459 578 L 476 578 L 476 561 Z  M 374 340 L 374 306 L 357 306 L 340 306 L 340 340 L 340 374 L 357 374 L 374 374 L 374 340 Z  M 646 357 L 646 340 L 663 340 L 680 340 L 680 323 L 680 306 L 714 306 L 748 306 L 748 323 L 748 340 L 731 340 L 714 340 L 714 357 L 714 374 L 680 374 L 646 374 L 646 357 Z  M 306 221 L 306 204 L 323 204 L 340 204 L 340 221 L 340 238 L 323 238 L 306 238 L 306 221 Z  M 374 221 L 374 204 L 391 204 L 408 204 L 408 221 L 408 238 L 391 238 L 374 238 L 374 221 Z  M 510 221 L 510 204 L 493 204 L 476 204 L 476 187 L 476 170 L 493 170 L 510 170 L 510 153 L 510 136 L 527 136 L 544 136 L 544 153 L 544 170 L 527 170 L 510 170 L 510 187 L 510 204 L 527 204 L 544 204 L 544 221 L 544 238 L 527 238 L 510 238 L 510 221 Z  M 442 969 L 442 952 L 459 952 L 476 952 L 476 935 L 476 918 L 493 918 L 510 918 L 510 935 L 510 952 L 493 952 L 476 952 L 476 969 L 476 986 L 459 986 L 442 986 L 442 969 Z  M 34 867 L 34 782 L 119 782 L 204 782 L 204 867 L 204 952 L 119 952 L 34 952 L 34 867 Z  M 170 867 L 170 816 L 119 816 L 68 816 L 68 867 L 68 918 L 119 918 L 170 918 L 170 867 Z  M 578 799 L 578 782 L 595 782 L 612 782 L 612 799 L 612 816 L 595 816 L 578 816 L 578 799 Z  M 714 765 L 714 714 L 765 714 L 816 714 L 816 765 L 816 816 L 765 816 L 714 816 L 714 765 Z  M 782 765 L 782 748 L 765 748 L 748 748 L 748 765 L 748 782 L 765 782 L 782 782 L 782 765 Z  M 34 119 L 34 34 L 119 34 L 204 34 L 204 119 L 204 204 L 119 204 L 34 204 L 34 119 Z  M 170 119 L 170 68 L 119 68 L 68 68 L 68 119 L 68 170 L 119 170 L 170 170 L 170 119 Z  M 782 119 L 782 34 L 867 34 L 952 34 L 952 119 L 952 204 L 867 204 L 782 204 L 782 119 Z  M 918 119 L 918 68 L 867 68 L 816 68 L 816 119 L 816 170 L 867 170 L 918 170 L 918 119 Z " fill-rule="evenodd" fill="rgb(0,0,0)"/></g></g></svg>
